<?xml version="1.0" standalone="no"?>
<!DOCTYPE svg PUBLIC "-//W3C//DTD SVG 20010904//EN"
 "http://www.w3.org/TR/2001/REC-SVG-20010904/DTD/svg10.dtd">
<svg version="1.0" xmlns="http://www.w3.org/2000/svg"
 width="451.000000pt" height="723.000000pt" viewBox="0 0 451.000000 723.000000"
 preserveAspectRatio="xMidYMid meet">

<g transform="translate(0.000000,723.000000) scale(0.100000,-0.100000)"
fill="#000000" stroke="none">
<path d="M2974 6933 c-284 -306 -482 -515 -819 -868 -292 -305 -482 -506 -521
-554 l-27 -33 196 7 c108 4 197 5 197 1 0 -6 -161 -472 -243 -706 l-45 -125
-238 -8 c-132 -4 -249 -10 -261 -12 -15 -3 -38 -35 -74 -98 -29 -50 -159 -265
-288 -477 -129 -212 -296 -486 -371 -610 -160 -263 -274 -447 -340 -545 -25
-38 -59 -92 -74 -118 -25 -43 -26 -48 -9 -43 29 9 470 81 708 115 196 29 406
60 870 131 105 16 193 30 198 30 4 0 7 -11 7 -23 0 -22 -20 -31 -262 -116
-145 -50 -360 -122 -478 -160 -161 -52 -760 -243 -866 -276 -12 -3 -30 -538
-19 -555 7 -11 987 -14 1098 -3 l68 6 116 129 c64 71 117 127 118 126 2 -2 -8
-57 -21 -123 -13 -66 -60 -334 -104 -595 -111 -655 -143 -836 -200 -1124 -27
-138 -48 -251 -47 -253 2 -1 41 37 88 85 46 48 248 258 449 467 440 459 654
679 899 928 l185 187 -202 0 c-111 0 -202 4 -202 8 0 12 184 555 213 627 l23
60 220 0 219 0 55 80 c96 141 591 910 866 1345 54 85 169 265 256 399 87 134
156 246 154 249 -3 2 -44 -5 -93 -16 -163 -38 -887 -156 -1213 -197 -69 -9
-210 -29 -313 -45 -103 -17 -192 -30 -197 -30 -6 0 -10 13 -10 28 0 24 6 30
38 41 71 23 568 169 707 209 244 69 809 232 842 243 l33 10 -3 251 -2 251
-389 -6 c-214 -4 -504 -7 -645 -7 l-256 -1 -110 -146 c-60 -80 -113 -153 -117
-162 -18 -43 -5 42 26 167 19 75 55 234 80 352 120 562 160 751 201 950 63
310 101 485 141 653 20 82 34 150 31 153 -2 3 -112 -111 -243 -253z m-61 -365
c-31 -68 -63 -129 -72 -136 -9 -7 -11 -11 -4 -7 9 4 10 -1 2 -23 -9 -25 -39
-41 -39 -21 0 17 -28 -3 -39 -28 -9 -20 -16 -24 -35 -19 -21 5 -53 -13 -42
-25 2 -2 -10 -17 -26 -34 -37 -37 -27 -15 19 42 19 24 39 42 45 40 6 -1 13 4
16 12 3 9 0 11 -8 6 -20 -12 -5 9 80 115 42 52 94 119 114 148 21 28 39 52 41
52 2 0 -22 -55 -52 -122z m-281 -680 c-22 -57 -80 -206 -128 -333 -48 -126
-109 -286 -136 -355 -28 -69 -108 -280 -178 -470 -185 -498 -284 -758 -319
-838 -17 -39 -31 -73 -31 -76 0 -18 1057 4 1427 29 124 8 228 13 230 11 3 -2
-38 -71 -90 -153 -52 -81 -153 -240 -224 -353 -135 -212 -230 -359 -800 -1234
-186 -286 -371 -572 -412 -635 -40 -64 -70 -107 -67 -96 32 90 122 376 206
654 55 184 103 337 105 341 2 4 34 105 70 226 108 358 133 438 212 677 42 125
73 230 70 233 -3 3 -31 1 -63 -5 -62 -11 -736 -76 -1154 -111 -135 -12 -266
-25 -292 -29 -27 -5 -48 -7 -48 -5 0 2 29 47 63 101 58 89 147 234 292 473 29
47 73 119 100 160 27 41 85 136 130 210 124 205 326 521 553 865 256 387 458
704 491 772 41 81 37 53 -7 -59z"/>
<path d="M2810 6400 c0 -5 5 -10 10 -10 6 0 10 5 10 10 0 6 -4 10 -10 10 -5 0
-10 -4 -10 -10z"/>
<path d="M486 5223 l-279 -3 6 -68 c4 -37 7 -467 7 -957 l1 -890 25 30 c24 29
92 125 309 435 56 80 125 177 153 216 l52 71 0 331 0 332 238 0 c130 0 242 4
247 8 6 4 21 27 34 52 27 50 137 217 237 358 l65 92 -408 -2 c-224 -2 -534 -4
-687 -5z"/>
<path d="M4150 3750 c-145 -214 -254 -373 -344 -500 l-81 -115 -3 -377 -4
-378 -293 0 -293 0 -161 -240 c-89 -132 -161 -244 -161 -249 0 -5 312 -8 720
-8 l720 2 3 1003 c1 551 0 1002 -3 1002 -3 0 -48 -63 -100 -140z"/>
</g>
</svg>
